HIERARCHY
ROOT Hips
{
    OFFSET 0.000000 0.000000 0.000000
    CHANNELS 6 Xposition Yposition Zposition Zrotation Xrotation Yrotation
        JOINT Chest
        {
            OFFSET -0.000000 31.935503 -0.000000
            CHANNELS 3 Zrotation Xrotation Yrotation
            JOINT Neck
            {
                OFFSET -0.000000 23.713140 0.000000
                CHANNELS 3 Zrotation Xrotation Yrotation
                JOINT Head
                {
                    OFFSET -0.000000 10.938888 0.000000
                    CHANNELS 3 Zrotation Xrotation Yrotation
                    End Site
                    {
                        OFFSET -0.000000 16.905556 0.000000
                    }
                }
            }
            JOINT LeftCollar
            {
                OFFSET -0.000000 23.713140 0.000000
                CHANNELS 3 Zrotation Xrotation Yrotation
                JOINT LeftShoulder
                {
                    OFFSET 19.888887 -0.000000 0.000000
                    CHANNELS 3 Zrotation Xrotation Yrotation
                    JOINT LeftElbow
                    {
                        OFFSET 23.906332 0.000000 0.000000
                        CHANNELS 3 Zrotation Xrotation Yrotation
                        JOINT LeftWrist
                        {
                            OFFSET 25.116924 0.000000 0.000000
                            CHANNELS 3 Zrotation Xrotation Yrotation
                            End Site
                            {
                                OFFSET 0.000000 -14.916667 0.000000
                            }
                        }
                    }
                }
            }
            JOINT RightCollar
            {
                OFFSET -0.000000 23.713140 0.000000
                CHANNELS 3 Zrotation Xrotation Yrotation
                JOINT RightShoulder
                {
                    OFFSET -19.888887 0.000000 0.000000
                    CHANNELS 3 Zrotation Xrotation Yrotation
                    JOINT RightElbow
                    {
                        OFFSET -23.906332 0.000000 0.000000
                        CHANNELS 3 Zrotation Xrotation Yrotation
                        JOINT RightWrist
                        {
                            OFFSET -25.116924 0.000000 0.000000
                            CHANNELS 3 Zrotation Xrotation Yrotation
                            End Site
                            {
                                OFFSET -0.000000 -14.916667 0.000000
                            }
                        }
                    }
                }
            }
        }
    JOINT LeftHip
    {
        OFFSET 11.933332 0.000000 0.000000
        CHANNELS 3 Zrotation Xrotation Yrotation
        JOINT LeftKnee
        {
            OFFSET -0.000000 -35.996647 0.000000
            CHANNELS 3 Zrotation Xrotation Yrotation
            JOINT LeftAnkle
            {
                OFFSET -0.000000 -39.788193 0.000000
                CHANNELS 3 Zrotation Xrotation Yrotation
                End Site
                {
                    OFFSET -0.000000 -4.972222 16.905556
                }
            }
        }
    }
    JOINT RightHip
    {
        OFFSET -11.933332 0.000000 0.000000
        CHANNELS 3 Zrotation Xrotation Yrotation
        JOINT RightKnee
        {
            OFFSET -0.000000 -35.996647 0.000000
            CHANNELS 3 Zrotation Xrotation Yrotation
            JOINT RightAnkle
            {
                OFFSET -0.000000 -39.788193 0.000000
                CHANNELS 3 Zrotation Xrotation Yrotation
                End Site
                {
                    OFFSET -0.000000 -4.972222 16.905556
                }
            }
        }
    }
}
MOTION
Frames:    7
Frame Time:    0.010000
-45.722008    74.822273    -13.033907    -4.447290    6.224453    -109.170845    26.321863    -0.260202    -5.289159    5.199438    8.316612    34.037579    -23.219965    -54.155445    22.430561    19.434910    -0.905854    -5.408237    36.563339    -5.134617    2.064128    2.918463    -0.225880    -7.517913    92.192406    16.791924    60.657082    8.671406    -0.256468    -3.624470    2.086328    -14.125250    -19.415201    -31.480518    -30.746883    88.655571    -109.321465    38.706894    -48.178280    23.672508    -29.552809    9.491967    -63.059013    65.769867    74.540771    -7.807134    -23.521406    22.101269    -19.522142    -22.290758    -1.090403    5.388130    54.874954    -15.274100    22.476604    -15.371793    15.590994    
-45.859272    74.851952    -12.101577    -4.519964    6.128534    -109.147942    26.645973    -0.327652    -5.493943    4.829350    8.927865    34.147705    -23.773325    -54.735924    22.094345    18.825592    -0.902780    -5.708590    36.652195    -3.328759    2.208118    2.837286    -0.195250    -7.469079    92.506859    16.540659    59.063210    8.808419    -0.285080    -3.716718    1.331320    -13.969675    -19.367552    -31.445166    -30.937422    88.987022    -108.707092    38.910534    -49.354195    23.225531    -29.561531    9.650575    -63.698887    65.466278    74.853088    -7.401811    -23.306293    22.104548    -19.985992    -22.090450    -0.770939    4.936446    54.187435    -14.950467    22.893450    -14.651672    15.121236    
-45.998737    74.913734    -11.151057    -4.599691    6.004863    -109.088524    26.964537    -0.493854    -5.690787    4.447479    9.749106    34.250290    -24.579216    -55.425419    21.578369    18.049042    -0.899701    -6.071291    36.707531    -1.342664    2.301965    2.708963    -0.143979    -7.375343    92.864677    16.172037    57.326405    8.973249    -0.315740    -3.805018    0.522464    -13.723509    -19.336008    -31.499653    -31.097628    89.256355    -108.014130    39.033066    -50.588661    22.724737    -29.543736    9.799112    -64.162567    65.102081    74.951340    -6.872433    -23.010088    22.138708    -20.440924    -21.840813    -0.405504    4.462942    53.424873    -14.624939    23.275293    -13.890972    14.566064    
-46.142246    75.009178    -10.182887    -4.692089    5.851473    -108.990860    27.272200    -0.756588    -5.877110    4.062624    10.773539    34.344257    -25.654760    -56.208214    20.864674    17.100405    -0.890831    -6.480128    36.708996    0.812703    2.328375    2.531468    -0.161119    -7.231879    93.299866    15.683278    55.324657    9.163617    -0.300503    -3.889745    -0.319735    -13.439850    -19.326973    -31.478121    -31.228952    89.558914    -107.365273    39.191570    -51.959816    22.157646    -29.492041    9.937975    -64.422188    64.686378    74.800392    -6.212982    -22.629410    22.217213    -20.883833    -21.536282    0.014365    3.962295    52.591564    -14.289081    23.621620    -13.084940    13.904685    
-46.292393    75.140205    -9.197658    -4.802000    5.666063    -108.854141    27.560429    -1.111840    -6.049994    3.687840    11.985307    34.429680    -27.014866    -57.059238    19.938606    15.980458    -0.868423    -6.915061    36.634289    3.129585    2.277122    2.327965    -0.163855    -7.029695    93.762581    15.081650    53.114239    9.366233    -0.334250    -3.969845    -1.155103    -13.038247    -19.326073    -31.540852    -31.432020    89.740578    -106.699234    39.215706    -53.201157    21.510109    -29.396309    10.067784    -64.443352    64.227890    74.362747    -5.428852    -22.165157    22.347807    -21.312103    -21.170870    0.497900    3.429570    51.690380    -13.931576    23.942232    -12.223769    13.110476    
-46.452599    75.309143    -8.195977    -4.933079    5.446264    -108.678757    27.817690    -1.556510    -6.204897    3.339875    13.367550    34.507130    -28.675861    -57.948948    18.787230    14.693599    -0.833427    -7.356045    36.462326    5.609440    2.142907    2.113770    -0.109774    -6.759871    94.238579    14.390728    50.720501    9.581594    -0.321285    -4.041038    -1.978221    -12.627828    -19.379763    -31.587721    -31.586758    89.964859    -106.046059    39.248665    -54.531361    20.766993    -29.243620    10.187970    -64.186653    63.733242    73.603355    -4.541125    -21.624205    22.527975    -21.723244    -20.738747    1.054383    2.858912    50.722248    -13.537393    24.248371    -11.295012    12.155235    
-46.626873    75.519035    -7.178607    -5.086808    5.189634    -108.465942    28.031012    -2.089255    -6.335606    3.031643    14.895244    34.573311    -30.640800    -58.842800    17.402561    13.248868    -0.779690    -7.784524    36.170166    8.236484    1.929173    1.887681    -0.123452    -6.435596    94.764801    13.637496    47.993549    9.795938    -0.370894    -4.102553    -2.738840    -12.125867    -19.463734    -31.710670    -31.841042    90.076408    -105.392166    39.198544    -55.750565    19.913403    -29.019583    10.296090    -63.611698    63.205925    72.493713    -3.587995    -21.020813    22.743040    -22.113750    -20.235186    1.692736    2.241503    49.686031    -13.086996    24.539408    -10.287232    11.012722    
